<!DOCTYPE svg PUBLIC "-//W3C//DTD SVG 1.1//EN" "http://www.w3.org/Graphics/SVG/1.1/DTD/svg11.dtd">
<!-- Uploaded to: SVG Repo, www.svgrepo.com, Transformed by: SVG Repo Mixer Tools -->
<svg fill="#000" version="1.1" id="Layer_1" xmlns="http://www.w3.org/2000/svg" xmlns:xlink="http://www.w3.org/1999/xlink" width="64px" height="64px" viewBox="0 0 256 213" enable-background="new 0 0 256 213" xml:space="preserve" stroke="#000">
<g id="SVGRepo_bgCarrier" stroke-width="0"/>
<g id="SVGRepo_tracerCarrier" stroke-linecap="round" stroke-linejoin="round"/>
<g id="SVGRepo_iconCarrier"> <path d="M128.986,86.924c-15.091,0-27.271,12.23-27.271,27.32s12.181,27.271,27.271,27.271c15.09,0,27.271-12.23,27.271-27.32 S143.978,86.924,128.986,86.924z M144.471,104.086l-18.74,25.89l-11.984-13.019c-1.332-1.479-1.282-3.699,0.148-5.129 c1.479-1.331,3.699-1.282,5.129,0.148l6.066,6.559l13.512-18.641c1.184-1.578,3.403-2.022,5.08-0.838 C145.26,100.19,145.655,102.508,144.471,104.086z M145.649,2c0,0-36.497,0-36.298,0C99.978,2,92,7.513,92,16.275V41H27.164 C14.138,41,2,52.056,2,66.666c0,0.395,0,117.569,0,117.569C2,200.523,14.171,211,27,211h201.947c12.772,0,25.053-9.589,25.053-26.07 c0,0,0-118.461,0-118.961C253.902,51.187,241.817,40,228.849,40H163V16.275C163,7.513,155.222,2,145.649,2z M105,16h45v25h-45V16z M162.964,84.607l-3.206,11.244l11.342,2.91c3.255,0.789,4.389,4.932,1.923,7.299l-8.334,8.137l8.285,8.137 c2.466,2.367,1.332,6.51-1.923,7.299l-11.342,2.91l3.206,11.244c0.887,3.255-2.17,6.263-5.375,5.375l-11.047-3.156l15.781,31.414 l-13.167-3.748l-3.649,12.181L128,151.034l-17.458,34.816l-3.649-12.181l-13.167,3.748l15.781-31.414L98.46,149.16 c-3.255,0.888-6.263-2.17-5.375-5.375l3.205-11.244l-11.343-2.91c-3.255-0.789-4.389-4.932-1.923-7.299l8.285-8.137l-8.334-8.137 c-2.466-2.367-1.332-6.51,1.923-7.299l11.343-2.91l-3.205-11.244c-0.888-3.255,2.17-6.263,5.375-5.375l11.244,3.206l2.909-11.342 c0.789-3.255,5.03-4.34,7.299-1.923L128,77.554l8.137-8.384c2.318-2.466,6.51-1.282,7.299,1.923l2.91,11.342l11.244-3.206 C160.844,78.343,163.852,81.401,162.964,84.607z"/> </g>
</svg>